<svg enable-background="new 0 0 64 64" fill="#000000" id="Layer_1" version="1.0" viewBox="0 0 64 64"
    xmlns="http://www.w3.org/2000/svg" xml:space="preserve"><g id="SVGRepo_bgCarrier" stroke-width="0"></g>
    <g id="SVGRepo_tracerCarrier" stroke-linecap="round" stroke-linejoin="round"></g>
    <g id="SVGRepo_iconCarrier"> <g> <path
        d="M57,18c-1.504,1.504-2.705,2-5,2 c-4.59,0-8-3.41-8-8c0-2.295,0.496-3.496,2-5l-6-6L1,40l6,6c1.504-1.504,2.705-2,5-2c4.59,0,8,3.41,8,8c0,2.295-0.496,3.496-2,5 l6,6l39-39L57,18z"
        fill="none" stroke="#000000" stroke-miterlimit="10" stroke-width="4"></path>
        <line fill="none" stroke="#000000" stroke-miterlimit="10" stroke-width="4" x1="26" x2="30"
            y1="15" y2="19"></line>
        <line fill="none" stroke="#000000" stroke-miterlimit="10" stroke-width="4" x1="45" x2="49"
            y1="34" y2="38"></line> </g>
        <line fill="none" stroke="#000000" stroke-miterlimit="10" stroke-width="4" x1="32" x2="36"
            y1="21" y2="25"></line>
        <line fill="none" stroke="#000000" stroke-miterlimit="10" stroke-width="4" x1="39" x2="43"
            y1="28" y2="32"></line> </g></svg>